<svg width="168" height="194" viewBox="0 0 168 194" fill="none" xmlns="http://www.w3.org/2000/svg">
<g id="Group">
<path id="Vector" d="M153.455 113.805C151.926 111.963 149.633 110.903 147.222 110.903H112.805C109.135 110.903 105.614 112.631 103.02 115.711L84.0188 138.247C82.8755 139.602 81.0033 139.602 79.8618 138.247L60.8602 115.711C58.2643 112.633 54.7457 110.903 51.0759 110.903H4.60768C2.15226 110.903 0.160889 112.871 0.160889 115.298V189.605C0.160889 192.032 2.15048 194 4.60768 194H104.508C137.572 194 164.378 171.215 164.378 143.11C164.378 132.198 160.333 122.09 153.453 113.805" fill="#E1D5A7"/>
<path id="Vector_2" d="M4.55605 73.9704H138.422C141.048 73.9704 143.539 72.6938 144.997 70.4997C149.622 63.5442 152.283 55.4418 152.283 46.7829C152.283 20.9449 128.672 1.19933e-06 99.546 1.19933e-06C98.4899 1.19933e-06 74.7233 0.00355695 74.7233 0.00355695C72.3532 0.00355695 70.9059 2.65279 72.2216 4.62993C74.1383 7.51563 75.8221 10.5702 77.2374 13.7724C77.465 14.2863 76.8302 14.7397 76.4035 14.3752C67.2023 6.50217 55.6559 1.31395 42.9645 0.00355695L4.55605 1.19933e-06C2.12907 -0.00177681 0.162598 1.97359 0.162598 4.40946V69.5592C0.162598 71.995 2.12907 73.9686 4.55605 73.9686" fill="#E1D5A7"/>
<path id="Vector_3" d="M6.7039 103.188C6.74301 103.188 6.77857 103.183 6.81769 103.183L6.82302 103.188C11.7801 103.188 14.5645 102.164 19.1055 100.178L31.7862 95.47C39.8655 91.9389 49.1467 92.9097 56.7476 97.376C69.295 104.749 84.8526 104.749 97.4017 97.376L98.4365 96.7679C105.389 92.6839 113.877 91.7593 121.264 94.9882L134.971 101.721C135.231 101.864 135.499 101.995 135.771 102.114L135.812 102.134C137.286 102.769 138.941 103.062 140.682 102.9C145.475 102.458 149.309 98.5246 149.634 93.7222C150.022 88.0255 145.593 83.2729 140.017 83.12V83.1129H4.6503C2.17176 83.1146 0.160836 85.1238 0.160836 87.6041V96.5919C0.160836 96.6097 0.159058 96.6257 0.159058 96.6435C0.159058 100.258 3.08921 103.188 6.7039 103.188Z" fill="#E1D5A7"/>
<path id="Vector_4" d="M153.889 13.1733V13.1359C153.889 9.59591 156.816 6.6142 160.503 6.6142C164.191 6.6142 167.117 9.55857 167.117 13.0986V13.1359C167.117 16.6759 164.191 19.6576 160.503 19.6576C156.816 19.6576 153.889 16.7133 153.889 13.1733ZM166.356 13.1359V13.0986C166.356 9.93018 163.848 7.32184 160.503 7.32184C157.159 7.32184 154.65 9.96752 154.65 13.1359V13.1733C154.65 16.3417 157.159 18.95 160.503 18.95C163.848 18.95 166.356 16.3043 166.356 13.1359ZM157.765 9.63325H160.996C162.591 9.63325 163.769 10.3427 163.769 11.87C163.769 12.951 163.161 13.6587 162.249 13.9574L163.997 16.379H161.983L160.5 14.2543H159.435V16.379H157.762V9.63325H157.765ZM160.882 12.9137C161.643 12.9137 162.061 12.5403 162.061 11.982C162.061 11.3846 161.606 11.0503 160.882 11.0503H159.436V12.9137H160.882Z" fill="#E1D5A7"/>
</g>
</svg>
