<svg width="22" height="22" viewBox="0 0 22 22" fill="none" xmlns="http://www.w3.org/2000/svg">
<g clip-path="url(#clip0_92_59)">
<path d="M11.0033 22C4.91682 22.0011 0 17.0805 0 10.9873C0 4.96144 4.96422 0.00110322 10.9967 1.8364e-07C17.0534 -0.00110285 22.0055 4.96696 21.9989 11.0358C21.9923 17.0849 17.0633 21.9989 11.0022 22H11.0033ZM8.36851 9.98355C7.92864 9.98355 7.48547 9.95046 7.04891 9.99128C6.41171 10.0519 6.03247 10.6465 6.19012 11.2697C6.32131 11.787 6.6796 12.0738 7.28483 12.0915C7.96282 12.1102 8.64412 12.1256 9.32101 12.0881C9.79395 12.0617 9.98577 12.1896 9.95159 12.6926C9.9097 13.296 9.93836 13.9037 9.94277 14.5093C9.95049 15.416 10.3264 15.8936 11.0143 15.8804C11.6857 15.8671 12.0462 15.4039 12.0539 14.5336C12.0594 13.928 12.0804 13.3202 12.0473 12.7158C12.0219 12.2503 12.1465 12.0528 12.6536 12.087C13.3294 12.1312 14.0118 12.1113 14.6898 12.0926C15.3954 12.0727 15.8474 11.6414 15.8496 11.0248C15.8518 10.384 15.4295 9.98355 14.703 9.96922C14.0063 9.95488 13.3074 9.94274 12.6117 9.97252C12.1653 9.99238 12.0385 9.80928 12.0506 9.39454C12.0705 8.66102 12.0749 7.92529 12.0451 7.19178C12.0197 6.55533 11.5755 6.14941 10.9857 6.15713C10.4201 6.16485 10.0001 6.55864 9.9549 7.16751C9.92514 7.56902 9.94388 7.97493 9.94388 8.37864C9.94388 9.43682 9.41912 9.97216 8.36961 9.98466L8.36851 9.98355Z" fill="#EEE0B3"/>
</g>
<defs>
<clipPath id="clip0_92_59">
<rect width="22" height="22" fill="white"/>
</clipPath>
</defs>
</svg>
