<svg width="21" height="24" viewBox="0 0 21 24" fill="none" xmlns="http://www.w3.org/2000/svg">
<rect width="21" height="24" fill="#1E1E1E"/>
<g id="Carrito Abierto" clip-path="url(#clip0_0_1)">
<rect width="1920" height="2372" transform="translate(-1696 -375)" fill="#020101"/>
<rect id="Rectangle 73" x="-501" y="-257" width="551" height="614" rx="2" fill="#EEE0B3"/>
<g id="Recurso 1 2" clip-path="url(#clip1_0_1)">
<g id="Capa 1">
<path id="Vector" d="M1.52026 6.08185H19.4844C19.4989 6.30331 19.5242 6.51394 19.5242 6.72337C19.5266 11.3151 19.529 15.9069 19.5242 20.4987C19.5218 22.8349 18.3427 24 15.9965 24C12.2409 24 8.48409 24 4.7285 24C2.80187 24 1.49977 22.8096 1.4865 20.8923C1.45395 16.0405 1.47565 11.1876 1.47806 6.33461C1.47806 6.25998 1.50218 6.18416 1.52026 6.08185ZM11.3065 15.0885C11.3065 13.6863 11.3065 12.2853 11.3065 10.8831C11.3065 10.5232 11.3138 10.1621 11.2921 9.80221C11.2631 9.32317 11.0413 8.9982 10.518 8.98857C9.99959 8.97894 9.75726 9.27864 9.71506 9.7673C9.69939 9.94664 9.69818 10.1272 9.69818 10.3077C9.69818 13.4516 9.69577 16.5954 9.69939 19.7392C9.69939 19.998 9.65478 20.3061 9.77534 20.5035C9.92002 20.7406 10.2226 21.0319 10.4529 21.0271C10.7194 21.0223 11.0365 20.7671 11.2245 20.5348C11.3499 20.3795 11.3053 20.0738 11.3053 19.8355C11.3113 18.254 11.3077 16.6712 11.3089 15.0897L11.3065 15.0885ZM6.76243 15.0223C6.76243 14.3218 6.76243 13.6213 6.76243 12.9208C6.76243 11.8796 6.77328 10.8385 6.75519 9.7986C6.74675 9.32077 6.51768 8.99338 5.9884 8.98616C5.46153 8.97894 5.2409 9.29429 5.19629 9.77453C5.18544 9.89368 5.19267 10.014 5.19267 10.1344C5.19267 13.3974 5.19267 16.6592 5.19267 19.9222C5.19267 20.1015 5.13842 20.3362 5.22884 20.4494C5.42174 20.6889 5.66528 20.9621 5.94017 21.0427C6.33924 21.1583 6.62257 20.8802 6.72505 20.4831C6.76845 20.3121 6.76001 20.1256 6.76001 19.9462C6.76243 18.3045 6.76122 16.664 6.76122 15.0223H6.76243ZM15.8024 15.0957C15.8024 13.3938 15.8048 11.6907 15.8024 9.98877C15.8012 9.30873 15.56 9.0006 15.0404 8.98736C14.493 8.97412 14.2194 9.2991 14.2182 9.9996C14.2145 13.3444 14.2145 16.6893 14.2182 20.0341C14.2182 20.7418 14.481 21.0692 15.0211 21.0668C15.5661 21.0644 15.8012 20.7563 15.8024 20.0245C15.8048 18.3828 15.8024 16.7398 15.8024 15.0969V15.0957Z" fill="#AC4343"/>
<path id="Vector_2" d="M10.56 4.47129C7.74845 4.47129 4.93567 4.47249 2.12409 4.46888C1.84318 4.46888 1.56105 4.45685 1.28375 4.42315C0.457885 4.32084 -0.0123185 3.77801 -0.000261974 2.96196C0.0117945 2.17601 0.474764 1.60188 1.27652 1.56577C2.6389 1.50319 4.00611 1.50559 5.37091 1.51643C5.80132 1.52004 6.08224 1.42375 6.26309 1.00008C6.57656 0.267078 7.18661 -0.00373435 7.96064 0.0010801C9.64734 0.010709 11.3353 0.0131162 13.022 -0.000123513C13.8261 -0.00614157 14.4338 0.288743 14.7472 1.04581C14.9064 1.42977 15.1608 1.51522 15.5454 1.51402C16.9102 1.5068 18.2786 1.48513 19.641 1.55494C20.6477 1.6067 21.1697 2.40228 20.9491 3.36878C20.8189 3.9393 20.4512 4.28232 19.8942 4.39426C19.5626 4.46046 19.2154 4.46888 18.8754 4.46888C16.1036 4.4749 13.3318 4.47249 10.56 4.47249V4.47129Z" fill="#AC4343"/>
</g>
</g>
</g>
<defs>
<clipPath id="clip0_0_1">
<rect width="1920" height="2372" fill="white" transform="translate(-1696 -375)"/>
</clipPath>
<clipPath id="clip1_0_1">
<rect width="21" height="24" fill="white"/>
</clipPath>
</defs>
</svg>
