<svg width="74" height="48" viewBox="0 0 74 48" fill="none" xmlns="http://www.w3.org/2000/svg">
<rect width="74" height="48" rx="2" fill="#EEE0B3"/>
<path d="M63.3354 26.5955C63.1226 26.3424 62.8042 26.1982 62.4671 26.1982H57.6776C57.1669 26.1982 56.6765 26.4346 56.3155 26.857L53.6714 29.9449C53.5131 30.131 53.2526 30.131 53.0925 29.9449L50.4484 26.857C50.0874 26.4346 49.597 26.1982 49.0863 26.1982H42.6198C42.2775 26.1982 42 26.4681 42 26.8V36.9824C42 37.3144 42.2775 37.5843 42.618 37.5843H56.5216C61.1237 37.5843 64.8541 34.4611 64.8541 30.6105C64.8541 29.1151 64.2906 27.7304 63.3337 26.5938L63.3354 26.5955Z" fill="#050101"/>
<path d="M42.6112 21.1372H61.2429C61.609 21.1372 61.9546 20.9628 62.1589 20.6611C62.8025 19.7089 63.1737 18.5974 63.1737 17.4105C63.172 13.87 59.8859 11 55.832 11C55.6856 11 52.3774 11 52.3774 11C52.0471 11 51.8462 11.3638 52.0284 11.6337C52.2957 12.0293 52.5289 12.4484 52.7264 12.8859C52.7588 12.9564 52.6703 13.0184 52.6107 12.9681C51.3303 11.8918 49.7247 11.1794 47.9574 11H42.6112C42.2741 11 42 11.2699 42 11.6052V20.5337C42 20.8673 42.2741 21.1388 42.6112 21.1388V21.1372Z" fill="#050101"/>
<path d="M42.9109 25.1404C42.9109 25.1404 42.9211 25.1404 42.9262 25.1404C43.6158 25.1404 44.004 25.0012 44.6356 24.728L46.4012 24.0826C47.525 23.5981 48.8173 23.7322 49.8746 24.3441C51.6215 25.355 53.7855 25.355 55.5324 24.3441L55.6771 24.2603C56.6442 23.7004 57.8258 23.5746 58.8541 24.0172L60.7611 24.9392C60.7968 24.9593 60.8343 24.9761 60.8717 24.9929L60.8768 24.9962C61.0812 25.0834 61.3127 25.1236 61.5545 25.1018C62.2219 25.0415 62.7548 24.5017 62.8008 23.8445C62.8553 23.0633 62.2389 22.4129 61.4625 22.3911H42.6215C42.2792 22.3894 42 22.666 42 23.0047V24.2368C42 24.2368 42 24.2418 42 24.2435C42 24.738 42.4086 25.1404 42.9109 25.1404Z" fill="#050101"/>
</svg>
