<svg width="27" height="27" viewBox="0 0 27 27" fill="none" xmlns="http://www.w3.org/2000/svg">
<g clip-path="url(#clip0_93_66)">
<path d="M9.41528 27.0001C3.52668 26.9974 -0.322934 22.8959 0.0216257 17.964C0.110806 16.6956 0.498605 15.4866 1.13097 14.3791C2.45246 12.0667 3.08618 9.53921 3.33481 6.92928C3.56857 4.48026 4.40362 2.45182 6.53854 1.07653C9.01126 -0.517833 12.3474 -0.355557 14.4796 1.66343C16.7821 3.84333 19.4116 5.3552 22.4194 6.32886C25.3853 7.28764 27.1311 10.0369 26.9919 13.2229C26.873 15.9261 24.6084 18.5915 21.7843 19.2447C20.7547 19.4827 19.721 19.6558 18.767 20.1426C17.4983 20.7917 16.4565 21.672 15.6876 22.8905C14.0162 25.5383 11.6124 26.9311 9.41393 27.0014L9.41528 27.0001ZM17.7199 12.709C17.7226 9.37018 15.162 6.76294 11.8704 6.75483C8.51267 6.74672 5.91563 9.32555 5.91293 12.6711C5.90887 15.9856 8.49375 18.5847 11.7975 18.5902C15.112 18.5942 17.7171 16.0073 17.7199 12.709Z" fill="#EEE0B3"/>
<path d="M11.1922 8.50596C11.7205 8.47891 12.1434 8.59927 12.1745 9.2362C12.2056 9.87854 11.8286 10.0895 11.2557 10.1368C10.1382 10.2315 9.42748 10.9442 9.28965 12.072C9.20318 12.7792 8.87888 13.1295 8.36002 13.0727C7.82899 13.0145 7.6155 12.6548 7.66684 11.9083C7.79791 10.0259 9.35992 8.51813 11.1922 8.50596Z" fill="#EEE0B3"/>
</g>
<defs>
<clipPath id="clip0_93_66">
<rect width="27" height="27" fill="white"/>
</clipPath>
</defs>
</svg>
