<svg width="46" height="46" viewBox="0 0 46 46" fill="none" xmlns="http://www.w3.org/2000/svg">
<circle cx="23" cy="23" r="22.5" fill="#EEE0B3" stroke="black"/>
<path d="M23.0304 11.0247C24.8238 11.0247 26.6185 11.0026 28.4105 11.0289C31.706 11.0787 34.6963 13.6989 34.8482 16.9846C35.0263 20.825 35.0594 24.6848 34.8841 28.5239C34.7074 32.3989 32.1505 34.8366 28.3015 34.9417C24.5118 35.0441 20.7138 34.9998 16.9241 34.8822C13.9462 34.7909 11.2099 31.9258 11.1257 28.932C11.0346 25.6159 10.9807 22.297 11.007 18.9795C11.0194 17.3318 11.0939 15.662 12.0576 14.19C13.3691 12.184 15.237 11.1506 17.5813 11.0413C19.394 10.9569 21.2136 11.0247 23.0304 11.0247ZM23.0208 33.1086C23.0235 33.0381 23.0249 32.9675 23.0277 32.8984C24.7755 32.8984 26.5274 32.9758 28.2711 32.8804C31.0654 32.7268 32.6807 31.2479 32.7815 28.4672C32.9168 24.7416 32.8878 21.0049 32.7649 17.2779C32.6862 14.8873 30.9411 13.2797 28.5376 13.1856C25.7115 13.075 22.8813 13.0542 20.0525 13.0335C19.0889 13.0265 18.1211 13.0971 17.1616 13.1995C15.7064 13.3544 14.533 14.024 13.7833 15.3134C13.1717 16.3634 13.082 17.549 13.0668 18.7263C13.035 21.1709 13.0185 23.6168 13.0488 26.0614C13.0626 27.164 13.1289 28.2776 13.3042 29.3637C13.5914 31.1469 14.9264 32.5165 16.6963 32.7102C18.7948 32.9385 20.9126 32.9841 23.0208 33.11V33.1086Z" fill="black"/>
<path d="M29.1146 23.0899C29.0759 26.4462 26.3244 29.1951 22.9972 29.2034C19.6617 29.2117 16.8136 26.3715 16.8219 23.047C16.8302 19.6023 19.6562 16.8008 23.0787 16.8423C26.4501 16.8838 29.1546 19.6839 29.1146 23.0899ZM27.0492 23.0235C27.0534 20.745 25.2821 18.941 23.0083 18.9092C20.798 18.8773 18.9038 20.7436 18.8831 22.9737C18.861 25.2301 20.7427 27.1296 22.9945 27.1227C25.2517 27.1157 27.0451 25.3034 27.0492 23.0235Z" fill="black"/>
<path d="M30.8334 16.4992C30.8431 17.2988 30.2536 17.9075 29.4639 17.9145C28.67 17.9214 28.0778 17.3389 28.0557 16.531C28.0364 15.7784 28.6894 15.1406 29.4694 15.1503C30.2315 15.16 30.8251 15.7466 30.8334 16.5006V16.4992Z" fill="black"/>
</svg>
