<svg width="23" height="28" viewBox="0 0 23 28" fill="none" xmlns="http://www.w3.org/2000/svg">
<path d="M21.3354 16.3409C21.1226 16.0878 20.8042 15.9436 20.4671 15.9436H15.6776C15.1669 15.9436 14.6765 16.18 14.3155 16.6024L11.6714 19.6903C11.5131 19.8764 11.2526 19.8764 11.0925 19.6903L8.44835 16.6024C8.0874 16.18 7.59705 15.9436 7.08627 15.9436H0.61975C0.277526 15.9436 0 16.2135 0 16.5454V26.7278C0 27.0598 0.277526 27.3297 0.618048 27.3297H14.5216C19.1237 27.3297 22.8541 24.2065 22.8541 20.3559C22.8541 18.8605 22.2906 17.4758 21.3337 16.3392L21.3354 16.3409Z" fill="#050101"/>
<path d="M0.611237 10.8826H19.2429C19.609 10.8826 19.9546 10.7082 20.1589 10.4065C20.8025 9.45429 21.1737 8.34284 21.1737 7.15595C21.172 3.61541 17.8859 0.745422 13.832 0.745422C13.6856 0.745422 10.3774 0.745422 10.3774 0.745422C10.0471 0.745422 9.8462 1.1092 10.0284 1.3791C10.2957 1.77473 10.5289 2.19383 10.7264 2.63137C10.7588 2.70177 10.6703 2.7638 10.6107 2.71351C9.33031 1.63726 7.72475 0.924797 5.95744 0.745422H0.611237C0.27412 0.745422 0 1.01532 0 1.3506V10.2791C0 10.6127 0.27412 10.8843 0.611237 10.8843V10.8826Z" fill="#050101"/>
<path d="M0.910897 14.8858C0.910897 14.8858 0.921112 14.8858 0.92622 14.8858C1.61578 14.8858 2.00397 14.7467 2.63564 14.4734L4.40125 13.828C5.52497 13.3435 6.81725 13.4776 7.87457 14.0895C9.62145 15.1004 11.7855 15.1004 13.5324 14.0895L13.6771 14.0057C14.6442 13.4458 15.8258 13.32 16.8541 13.7626L18.7611 14.6846C18.7968 14.7047 18.8343 14.7215 18.8717 14.7383L18.8768 14.7416C19.0812 14.8288 19.3127 14.869 19.5545 14.8472C20.2219 14.7869 20.7548 14.2471 20.8008 13.5899C20.8553 12.8087 20.2389 12.1583 19.4625 12.1365H0.621453C0.279228 12.1348 0 12.4114 0 12.7501V13.9822C0 13.9822 0 13.9873 0 13.9889C0 14.4835 0.408627 14.8858 0.910897 14.8858Z" fill="#050101"/>
</svg>
