<svg width="41" height="42" viewBox="0 0 41 42" fill="none" xmlns="http://www.w3.org/2000/svg">
<rect x="0.5" y="0.5" width="40" height="41" rx="2.5" stroke="#EEE0B3"/>
<rect x="0.5" y="0.5" width="40" height="41" rx="2.5" stroke="#EEE0B3"/>
<g clip-path="url(#clip0_80_8)">
<path d="M26.964 18.1975C26.9607 18.0079 26.9455 17.8161 26.9073 17.631C26.8243 17.2235 26.7337 16.8182 26.6006 16.422C26.4467 15.9645 26.2622 15.5229 26.0123 15.1199C25.4699 14.2424 24.7746 13.525 23.9135 12.9778C23.5031 12.7167 23.0807 12.4999 22.6223 12.3568C22.1148 12.1968 21.5975 12.0832 21.0692 12.0287C20.744 11.9958 20.4176 11.9924 20.088 12.0242C19.706 12.0594 19.3284 12.1082 18.9551 12.2002C18.4509 12.325 17.9597 12.4931 17.4992 12.7383C16.8247 13.097 16.2397 13.5772 15.7201 14.155C15.2606 14.667 14.9114 15.2494 14.6123 15.8692C14.393 16.3233 14.2642 16.8137 14.1561 17.3064C14.0819 17.6469 14.0459 17.9989 14.0131 18.3474C13.9651 18.8616 14.059 19.3668 14.1572 19.8652C14.2325 20.2489 14.3569 20.6223 14.4945 20.9913C14.7357 21.6327 15.0052 22.2582 15.3359 22.8553C15.4735 23.1141 15.6088 23.373 15.7496 23.6295C16.065 24.2074 16.4088 24.7682 16.7493 25.3301C16.9873 25.7229 17.2383 26.1066 17.5123 26.4732C17.5123 26.4823 17.5101 26.4948 17.5144 26.5005C17.7938 26.9046 18.0743 27.3088 18.3537 27.7118C18.4323 27.8253 18.5087 27.9399 18.5895 28.0512C18.9169 28.5019 19.2422 28.9548 19.5772 29.3998C19.6886 29.5474 19.7868 29.712 19.9571 29.8017C20.2114 30.0151 20.494 30.0458 20.8018 29.9561C21.0419 29.8857 21.1926 29.7018 21.3475 29.519C21.3825 29.468 21.4174 29.4169 21.4523 29.3658C21.5898 29.1717 21.7612 29.0036 21.8671 28.7857C22.1192 28.5405 22.2883 28.2283 22.487 27.9399C22.5547 27.8491 22.6354 27.7697 22.6791 27.6607C22.762 27.5631 22.8373 27.4586 22.8985 27.344C23.0305 27.2021 23.1255 27.0306 23.2368 26.8728C23.4125 26.6231 23.5861 26.3722 23.7367 26.1054C23.9058 25.8784 24.0488 25.6332 24.2016 25.3948C24.4396 25.0599 24.6436 24.7012 24.8532 24.347C25.0769 23.969 25.2898 23.583 25.5004 23.197C25.663 22.8996 25.8202 22.5988 25.9676 22.2934C26.0931 22.0334 26.2022 21.7655 26.3179 21.501C26.45 21.2251 26.5482 20.9334 26.6377 20.6405C26.7185 20.376 26.7839 20.107 26.8461 19.8356C26.9247 19.4973 26.9564 19.1556 26.9924 18.8128C27.0142 18.6062 26.9651 18.4041 26.9618 18.1975H26.964Z" fill="#EEE0B3"/>
<circle cx="20.5" cy="18.5" r="2.5" fill="#17140F"/>
<circle cx="20.5" cy="18.5" r="2.5" fill="#17140F"/>
</g>
<defs>
<clipPath id="clip0_80_8">
<rect width="13" height="18" fill="white" transform="translate(14 12)"/>
</clipPath>
</defs>
</svg>
