<svg width="22" height="29" viewBox="0 0 22 29" fill="none" xmlns="http://www.w3.org/2000/svg">
<g clip-path="url(#clip0_92_51)">
<path d="M11.0199 28.9986C9.12743 28.9986 7.23645 29.0015 5.34399 28.9986C4.13447 28.9956 3.56659 28.5777 3.28633 27.4405C2.20514 23.0372 1.1328 18.6339 0.0604518 14.2306C-0.125401 13.4691 0.284656 12.8502 1.07232 12.776C1.63283 12.7221 2.21989 12.674 2.75975 12.7891C3.10933 12.8633 3.56216 13.1735 3.68016 13.4836C4.42653 15.4479 5.90598 16.5138 7.89874 16.9375C10.0862 17.4035 12.284 17.4006 14.4641 16.8516C16.2961 16.39 17.6236 15.3446 18.2932 13.5623C18.4968 13.0206 18.8626 12.7352 19.4585 12.7498C19.8273 12.7585 20.196 12.7468 20.5648 12.7512C21.7389 12.7658 22.1814 13.338 21.8997 14.5087C21.4808 16.2517 21.0442 17.9903 20.6179 19.7318C20.0146 22.2029 19.4098 24.6753 18.8169 27.1478C18.4629 28.62 17.9982 28.9971 16.4745 28.9986C14.6558 28.9986 12.8386 28.9986 11.0199 28.9986Z" fill="#EEE0B3"/>
<path d="M9.26621 7.79751C9.26621 5.54344 9.26325 3.28938 9.26621 1.03531C9.26768 0.0961134 9.79279 -0.251898 10.6468 0.186393C13.0998 1.44448 12.7723 0.770295 12.7812 3.4379C12.793 7.07382 12.7841 10.7083 12.7841 14.3442C12.7841 15.0004 12.4414 15.3305 11.756 15.3344C11.2162 15.3373 10.6749 15.3096 10.1365 15.3402C9.49926 15.3766 9.2308 15.1931 9.24703 14.4854C9.29571 12.2561 9.26473 10.0268 9.26473 7.79751H9.26621Z" fill="#EEE0B3"/>
<path d="M7.23791 14.6383C6.18917 14.1753 5.63456 13.4487 5.46493 12.4585C4.87197 9.00025 4.28196 5.54052 3.75095 2.07205C3.7008 1.74151 3.96925 1.22896 4.25393 1.01054C4.74954 0.631952 5.3661 0.403342 5.94579 0.141241C6.61987 -0.164543 7.17301 0.14561 7.28069 0.866387C7.29839 0.985788 7.29249 1.1081 7.29249 1.22896C7.29249 5.47208 7.29249 9.71374 7.29249 13.9569C7.29249 14.1462 7.26446 14.334 7.24086 14.6398L7.23791 14.6383Z" fill="#EEE0B3"/>
<path d="M14.7399 14.7388C14.7399 12.3551 14.7399 10.152 14.7399 7.94894C14.7399 6.42002 14.7532 4.8911 14.734 3.36218C14.7267 2.75352 14.9715 2.4026 15.5792 2.28028C16.0365 2.18855 16.4864 2.06186 16.9392 1.95266C18.0307 1.69056 18.4555 2.05167 18.2667 3.13648C17.8965 5.26095 17.4997 7.38106 17.1103 9.50262C16.9127 10.5758 16.6914 11.6431 16.5056 12.7177C16.3389 13.6846 15.6427 14.1753 14.7399 14.7388Z" fill="#EEE0B3"/>
<path d="M3.20683 10.7199C3.08293 10.7884 3.06228 10.8102 3.04015 10.8117C1.71558 10.8971 0.922505 10.302 0.660934 9.02647C0.441156 7.93729 0.227277 6.84521 0.0296235 5.75166C-0.120829 4.92313 0.303978 4.50377 1.14917 4.61589C1.8144 4.70472 2.27904 4.87508 2.37344 5.72691C2.55782 7.40144 2.9192 9.05705 3.20683 10.7199Z" fill="#EEE0B3"/>
<path d="M21.053 10.8044H18.8877C19.103 9.53902 19.3066 8.31006 19.5205 7.08401C19.6119 6.55981 19.7255 6.03852 19.8243 5.51432C19.9541 4.8314 20.4807 4.49649 21.3053 4.61007C22.0723 4.71491 22.0457 5.26969 21.9484 5.82156C21.6622 7.46405 21.3584 9.1051 21.0516 10.8058L21.053 10.8044Z" fill="#EEE0B3"/>
</g>
<defs>
<clipPath id="clip0_92_51">
<rect width="22" height="29" fill="white"/>
</clipPath>
</defs>
</svg>
