<svg width="22" height="29" viewBox="0 0 22 29" fill="none" xmlns="http://www.w3.org/2000/svg">
<g clip-path="url(#clip0_77_350)">
<path d="M11.0625 0.00254952C13.988 0.00254952 16.9149 -0.000355413 19.8404 0.00254952C21.4418 0.00400199 22.1016 0.750571 21.985 2.31779C21.706 6.10437 21.464 9.89387 21.1894 13.6805C20.9179 17.4177 20.6492 21.1563 20.326 24.8906C20.1179 27.3003 18.3806 28.927 15.9614 28.9619C12.6669 29.0084 9.37099 29.0142 6.07652 28.9619C3.5304 28.9198 1.81232 27.0969 1.62339 24.4505C1.09645 17.0444 0.551802 9.63968 0.00862838 2.23499C-0.0932167 0.834814 0.638887 0.0112643 2.06324 0.00545446C5.0625 -0.00616529 8.06324 0.00109706 11.0625 0.00109706V0.00254952ZM3.71195 3.61775C3.84184 5.36942 3.95992 7.03105 4.10162 8.69122C4.11343 8.82339 4.26988 8.98462 4.40125 9.0616C5.97911 9.97085 7.58649 10.4168 9.36361 9.52784C10.3953 9.01076 11.5407 8.96719 12.5725 9.48136C14.3053 10.347 15.9053 10.0783 17.461 9.12841C17.7046 8.97881 17.9422 8.63457 17.9703 8.3586C18.1105 7.03541 18.1429 5.70059 18.2861 4.37884C18.3599 3.70635 18.1326 3.56255 17.4891 3.56691C13.1835 3.5916 8.878 3.57998 4.57247 3.58143C4.33188 3.58143 4.09129 3.60177 3.71195 3.6192V3.61775Z" fill="#EEE0B3"/>
</g>
<defs>
<clipPath id="clip0_77_350">
<rect width="22" height="29" fill="white"/>
</clipPath>
</defs>
</svg>
