<svg width="46" height="46" viewBox="0 0 46 46" fill="none" xmlns="http://www.w3.org/2000/svg">
<circle cx="23" cy="23" r="22.5" fill="#EEE0B3" stroke="black"/>
<g clip-path="url(#clip0_56_21)">
<path d="M24.105 18.557C24.105 16.2172 24.1171 13.8784 24.0942 11.5386C24.0906 11.1256 24.2037 10.9851 24.691 11.001C25.691 11.0337 26.6945 11.0263 27.6957 11.0031C28.0916 10.9936 28.2047 11.1267 28.2468 11.4478C28.5717 13.9365 30.7424 15.8306 33.5485 16.063C33.8843 16.0904 34.0022 16.1813 33.9986 16.4718C33.9865 17.4035 33.9817 18.3362 34.001 19.2679C34.0082 19.6081 33.8602 19.6767 33.498 19.6524C31.7725 19.5373 30.1552 19.1412 28.6872 18.314C28.5657 18.2454 28.449 18.0743 28.2781 18.1545C28.1072 18.2359 28.2011 18.4112 28.1999 18.5433C28.1951 20.7944 28.2095 23.0465 28.1939 25.2976C28.1734 28.156 26.7042 30.2846 23.7633 31.4793C20.9367 32.6276 18.2149 32.2483 15.7602 30.5656C13.4498 28.9821 12.4643 26.15 13.285 23.581C14.0996 21.0299 16.6205 19.1211 19.5854 18.7947C20.1245 18.7355 20.6564 18.6859 21.2003 18.7303C21.5179 18.7567 21.6527 18.8602 21.6479 19.1581C21.6311 20.1257 21.6359 21.0933 21.6443 22.0599C21.6467 22.3303 21.5757 22.4232 21.2255 22.3746C19.1992 22.0926 17.2944 23.3232 17.1042 25.0134C16.8913 26.9138 18.322 28.3969 20.4783 28.5099C22.3819 28.6103 24.0894 27.1916 24.1002 25.4687C24.1159 23.1648 24.1038 20.8598 24.1038 18.556L24.105 18.557Z" fill="#020102"/>
</g>
<defs>
<clipPath id="clip0_56_21">
<rect width="21" height="21.1407" fill="white" transform="translate(13 11)"/>
</clipPath>
</defs>
</svg>
