<svg width="212" height="90" viewBox="0 0 212 90" fill="none" xmlns="http://www.w3.org/2000/svg">
<g clip-path="url(#clip0_198_8938)">
<path d="M0 50.1086C0 50.6155 0.411973 51.021 0.910678 51.021H28.7803C37.3956 51.021 46.5458 45.5684 46.5458 35.4743C46.5458 31.3469 44.616 27.538 41.1251 24.7502L40.7998 24.4895C40.424 24.1854 40.3445 23.6423 40.6191 23.244L40.8576 22.9037C42.4838 20.5865 43.3078 18.0304 43.3078 15.3077C43.315 4.75018 33.1024 0 25.8604 0H0.910678C0.411973 0 0 0.412744 0 0.912382V50.1086ZM28.7875 40.8907H13.9565C13.4506 40.8907 13.0458 40.4779 13.0458 39.9783V31.5858C13.0458 31.0789 13.4578 30.6734 13.9565 30.6734H28.7875C31.7725 30.6734 34.295 33.034 34.295 35.8219C34.295 38.7618 31.9821 40.8907 28.7875 40.8907ZM25.8604 20.4417H13.9565C13.4506 20.4417 13.0458 20.029 13.0458 19.5293V11.1369C13.0458 10.63 13.4578 10.2245 13.9565 10.2245H25.8604C28.7297 10.2245 31.057 12.462 31.057 15.2136C31.057 17.9652 28.7225 20.4417 25.8604 20.4417Z" fill="#F1E4B2"/>
<path d="M56.3536 51.1079H67.4551C67.9611 51.1079 68.3658 50.6951 68.3658 50.1955V0.977537C68.3658 0.470658 67.9539 0.065155 67.4551 0.065155H56.3536C55.8476 0.065155 55.4429 0.477899 55.4429 0.977537V50.1955C55.4429 50.7024 55.8548 51.1079 56.3536 51.1079Z" fill="#F1E4B2"/>
<path d="M78.976 51.1079H109.78C110.286 51.1079 110.691 50.6951 110.691 50.1955V41.803C110.691 41.2961 110.279 40.8906 109.78 40.8906H92.0146C91.5086 40.8906 91.1039 40.4779 91.1039 39.9783V0.977537C91.1039 0.470658 90.6919 0.065155 90.1932 0.065155H78.976C78.47 0.065155 78.0653 0.477899 78.0653 0.977537V50.1955C78.0653 50.7024 78.4773 51.1079 78.976 51.1079Z" fill="#F1E4B2"/>
<path d="M121.214 51.1079H152.018C152.524 51.1079 152.929 50.6951 152.929 50.1955V41.803C152.929 41.2961 152.517 40.8906 152.018 40.8906H134.253C133.747 40.8906 133.342 40.4779 133.342 39.9783V0.977537C133.342 0.470658 132.93 0.065155 132.431 0.065155H121.214C120.708 0.065155 120.303 0.477899 120.303 0.977537V50.1955C120.303 50.7024 120.715 51.1079 121.214 51.1079Z" fill="#F1E4B2"/>
<path d="M166.878 51.1079H178.117C178.623 51.1079 179.028 50.6951 179.028 50.1955V30.9558C179.028 30.7676 179.086 30.5865 179.194 30.4272L199.503 1.49891C199.93 0.890652 199.503 0.0579224 198.759 0.0579224H186.038C185.735 0.0579224 185.446 0.209986 185.28 0.463426L173.26 18.4794C172.899 19.0224 172.096 19.0224 171.735 18.4794L159.889 0.477908C159.723 0.224468 159.434 0.0651635 159.13 0.0651635H146.308C145.571 0.0651635 145.137 0.897893 145.564 1.50615L165.801 30.4345C165.91 30.5865 165.967 30.7748 165.967 30.9631V50.2027C165.967 50.7096 166.379 51.1151 166.878 51.1151V51.1079Z" fill="#F1E4B2"/>
<path d="M124.756 64.3881V61.6872C124.756 61.6003 124.691 61.5351 124.604 61.5351H113.271C113.184 61.5351 113.119 61.6003 113.119 61.6872V64.3881C113.119 64.475 113.184 64.5402 113.271 64.5402H116.834C116.921 64.5402 116.986 64.6054 116.986 64.6923V76.5822C116.986 76.6691 117.051 76.7343 117.138 76.7343H120.73C120.817 76.7343 120.882 76.6691 120.882 76.5822V64.6923C120.882 64.6054 120.947 64.5402 121.033 64.5402H124.597C124.683 64.5402 124.748 64.475 124.748 64.3881H124.756Z" fill="#F1E4B2"/>
<path d="M59.1868 61.5062H55.5947C55.5079 61.5062 55.4429 61.5713 55.4429 61.6582V76.4953C55.4429 76.5822 55.5079 76.6474 55.5947 76.6474H65.0845C65.1712 76.6474 65.2363 76.5822 65.2363 76.4953V73.7654C65.2363 73.6785 65.1712 73.6133 65.0845 73.6133H59.4903C59.4036 73.6133 59.3385 73.5482 59.3385 73.4613V61.6655C59.3385 61.5786 59.2735 61.5134 59.1868 61.5134V61.5062Z" fill="#F1E4B2"/>
<path d="M74.4659 61.0065C69.8185 61.0065 66.0312 64.6199 66.0312 69.0659C66.0312 73.512 69.739 77.0529 74.4659 77.0529C79.1927 77.0529 82.7631 73.512 82.7631 68.9935C82.7631 64.475 79.1204 61.0065 74.4659 61.0065ZM74.4008 73.8306C71.7555 73.8306 69.7535 71.7668 69.7535 69.0369C69.7535 66.307 71.7483 64.2433 74.4008 64.2433C77.0533 64.2433 79.0698 66.307 79.0698 69.0369C79.0698 71.7668 77.0606 73.8306 74.4008 73.8306Z" fill="#F1E4B2"/>
<path d="M94.6092 72.1217L90.316 61.6003C90.2944 61.5424 90.2365 61.5062 90.1715 61.5062H85.647C85.5603 61.5062 85.4952 61.5713 85.4952 61.6582V76.4736C85.4952 76.5605 85.5603 76.6256 85.647 76.6256H89.1885C89.2753 76.6256 89.3403 76.5605 89.3403 76.4736V68.0377C89.3403 67.8711 89.5716 67.8277 89.6367 67.9797L93.0698 76.5315C93.0915 76.5894 93.1493 76.6256 93.2143 76.6256H95.9174C95.9825 76.6256 96.0331 76.5894 96.062 76.5315L99.4734 68.3418C99.5385 68.1897 99.7697 68.2332 99.7697 68.3997V76.4953C99.7697 76.5822 99.8348 76.6474 99.9215 76.6474H103.492C103.579 76.6474 103.644 76.5822 103.644 76.4953V61.6582C103.644 61.5713 103.579 61.5062 103.492 61.5062H99.1988C99.1337 61.5062 99.0831 61.5424 99.0542 61.6003L94.9056 72.1144C94.855 72.2448 94.6743 72.2448 94.6237 72.1144L94.6092 72.1217Z" fill="#F1E4B2"/>
<path d="M110.264 61.5062H106.672C106.588 61.5062 106.52 61.5742 106.52 61.6582V76.4953C106.52 76.5793 106.588 76.6474 106.672 76.6474H110.264C110.348 76.6474 110.416 76.5793 110.416 76.4953V61.6582C110.416 61.5742 110.348 61.5062 110.264 61.5062Z" fill="#F1E4B2"/>
<path d="M134.058 60.9848C129.41 60.9848 125.623 64.5981 125.623 69.0442C125.623 73.4902 129.331 77.0311 134.058 77.0311C138.784 77.0311 142.355 73.4902 142.355 68.9718C142.355 64.4533 138.712 60.9848 134.058 60.9848ZM133.992 73.8088C131.347 73.8088 129.345 71.7451 129.345 69.0152C129.345 66.2853 131.34 64.2216 133.992 64.2216C136.645 64.2216 138.662 66.2853 138.662 69.0152C138.662 71.7451 136.652 73.8088 133.992 73.8088Z" fill="#F1E4B2"/>
<path d="M203.659 4.14193V4.1202C203.659 1.88269 205.502 0 207.83 0C210.157 0 212 1.86097 212 4.09848V4.1202C212 6.35771 210.157 8.24041 207.83 8.24041C205.502 8.24041 203.659 6.37943 203.659 4.14193ZM211.523 4.1202V4.09848C211.523 2.09993 209.94 0.44895 207.83 0.44895C205.719 0.44895 204.136 2.12165 204.136 4.1202V4.14193C204.136 6.14048 205.719 7.79146 207.83 7.79146C209.94 7.79146 211.523 6.11875 211.523 4.1202ZM206.109 1.90442H208.148C209.152 1.90442 209.897 2.35337 209.897 3.31644C209.897 3.9971 209.514 4.44605 208.935 4.63432L210.041 6.1622H208.769L207.837 4.82259H207.165V6.1622H206.109V1.90442ZM208.075 3.98262C208.552 3.98262 208.82 3.74366 208.82 3.39609C208.82 3.01955 208.531 2.80956 208.075 2.80956H207.165V3.98986H208.075V3.98262Z" fill="#F1E4B2"/>
<path d="M106.882 87.3063H92.4482V90.0072H106.882V87.3063Z" fill="#F1E4B2"/>
</g>
<defs>
<clipPath id="clip0_198_8938">
<rect width="212" height="90" fill="white"/>
</clipPath>
</defs>
</svg>
