<svg width="42" height="31" viewBox="0 0 42 31" fill="none" xmlns="http://www.w3.org/2000/svg">
<g clip-path="url(#clip0_77_381)">
<path d="M26.0213 -0.000131155C30.2432 -0.000131155 34.4652 -0.00292596 38.6872 -0.000131155C40.7331 0.00126625 41.9962 1.25613 41.9976 3.29914C42.0018 8.13974 42.0032 12.9803 41.9976 17.8196C41.9948 19.8109 40.7163 21.0797 38.7166 21.0853C36.6876 21.0923 34.6585 21.1021 32.6294 21.0755C32.1659 21.0699 32.0511 21.2027 32.0553 21.6554C32.0791 23.7026 32.0707 25.7512 32.0637 27.7984C32.0581 29.6835 30.7474 30.9929 28.8555 30.9943C20.2953 30.9985 11.7351 30.9985 3.17493 30.9943C1.3223 30.9943 0.0115904 29.6905 0.00878979 27.832C-0.0010125 22.9215 0.000387826 18.011 0.00878979 13.1019C0.0115904 11.2029 1.30969 9.92004 3.21974 9.91025C5.27262 9.90047 7.3255 9.89349 9.37698 9.91864C9.84328 9.92423 9.95391 9.78588 9.94831 9.33732C9.9245 7.29012 9.93291 5.24153 9.93991 3.19433C9.94551 1.30644 11.2492 0.00545846 13.1453 0.00266365C17.4373 -0.00292596 21.7293 0.00126625 26.0213 0.00126625V-0.000131155ZM16.0341 29.6011C20.2547 29.6011 24.4753 29.6011 28.6973 29.6011C30.0248 29.6011 30.6647 28.9639 30.6647 27.6433C30.6661 22.8502 30.6661 18.0585 30.6647 13.2654C30.6647 11.9463 30.0234 11.3091 28.6931 11.3091C20.2519 11.3077 11.8093 11.3077 3.36817 11.3091C2.03086 11.3091 1.40632 11.9337 1.40632 13.271C1.40352 18.0641 1.40352 22.8558 1.40632 27.6489C1.40632 28.9876 2.02666 29.6025 3.37237 29.6025C7.59296 29.6039 11.8135 29.6025 16.0355 29.6025L16.0341 29.6011ZM26.0269 8.66098C21.34 8.66098 16.6517 8.65958 11.9648 8.66796C11.7603 8.66796 11.4859 8.52123 11.35 8.81748C11.0756 9.41138 11.4074 9.91025 12.0684 9.91025C17.6655 9.91025 23.2612 9.90466 28.8583 9.91305C30.7516 9.91584 32.0567 11.2322 32.0623 13.1173C32.0693 15.1184 32.0763 17.1195 32.0539 19.1191C32.0483 19.5593 32.1463 19.7116 32.6196 19.7047C34.6487 19.6767 36.6777 19.6977 38.7054 19.6907C39.9419 19.6865 40.5917 19.0339 40.5945 17.793C40.6001 14.9549 40.5791 12.1168 40.6113 9.27863C40.6183 8.72665 40.4404 8.6484 39.9461 8.65119C35.3054 8.66936 30.6647 8.66237 26.0241 8.66237L26.0269 8.66098ZM25.9666 3.48499C30.6535 3.48499 35.3404 3.47521 40.0273 3.49897C40.5539 3.50176 40.6617 3.33128 40.5931 2.86734C40.4572 1.96462 39.7851 1.40007 38.7754 1.40007C33.8561 1.39727 28.9353 1.39867 24.016 1.39867C20.4017 1.39867 16.7875 1.39727 13.1733 1.40007C12.2336 1.40007 11.5391 1.90593 11.3654 2.72201C11.2632 3.20272 11.2898 3.50875 11.9774 3.50456C16.6405 3.47102 21.3036 3.48779 25.968 3.48779L25.9666 3.48499Z" fill="#EEE0B3"/>
<path d="M24.5409 19.4197C23.6573 19.4197 22.7723 19.4002 21.8887 19.4267C21.2431 19.4449 20.9378 19.1822 20.9434 18.5296C20.9546 17.2524 20.9476 15.9765 20.9462 14.6993C20.9462 14.0914 21.2557 13.8175 21.8564 13.8203C23.6713 13.8259 25.4861 13.8203 27.3009 13.8231C27.8583 13.8231 28.1607 14.0705 28.1537 14.6672C28.1397 15.9667 28.1341 17.2677 28.1565 18.5673C28.1677 19.2087 27.8695 19.4365 27.2645 19.4239C26.3571 19.4072 25.4497 19.4197 24.5423 19.4197H24.5409Z" fill="#EEE0B3"/>
<path d="M11.5934 25.8799C9.35569 25.8799 7.11797 25.8771 4.88165 25.8827C4.37613 25.8827 3.89162 25.8282 3.91122 25.184C3.92942 24.565 4.40834 24.4825 4.91245 24.4825C9.36409 24.4825 13.8157 24.4839 18.2674 24.4825C18.7841 24.4825 19.249 24.5999 19.242 25.212C19.235 25.8492 18.7379 25.8855 18.2366 25.8841C16.0226 25.8771 13.8087 25.8813 11.5948 25.8813L11.5934 25.8799Z" fill="#EEE0B3"/>
<path d="M9.21295 22.6421C7.74681 22.6421 6.27927 22.6379 4.81313 22.6449C4.32021 22.6477 3.88891 22.5541 3.90992 21.9532C3.92952 21.3873 4.35102 21.2461 4.83833 21.2461C7.74821 21.2461 10.6595 21.2461 13.5694 21.2447C14.0763 21.2447 14.4824 21.4348 14.4796 21.9756C14.4768 22.5401 14.0483 22.6533 13.5442 22.6477C12.1004 22.6309 10.6567 22.6421 9.21295 22.6421Z" fill="#EEE0B3"/>
</g>
<defs>
<clipPath id="clip0_77_381">
<rect width="42" height="31" fill="white"/>
</clipPath>
</defs>
</svg>
